<?xml version="1.0" encoding="utf-8"?>
<!-- Generator: Adobe Illustrator 19.0.0, SVG Export Plug-In . SVG Version: 6.00 Build 0)  -->
<svg version="1.1" id="Layer_1" xmlns="http://www.w3.org/2000/svg" xmlns:xlink="http://www.w3.org/1999/xlink" x="0px" y="0px"
	 viewBox="0 0 500 500" style="enable-background:new 0 0 500 500;" xml:space="preserve">
<style type="text/css">
	.st0{fill:#20C063;}
	.st1{fill:#FFFFFF;}
</style>
<g id="XMLID_1_">
	<rect id="XMLID_3_" x="67.5" y="174.8" class="st0" width="365" height="150.5"/>
	<circle id="XMLID_4_" class="st1" cx="330.1" cy="218.9" r="7.6"/>
	<path id="XMLID_5_" class="st1" d="M181.4,288c-11,0-16.5-6.3-16.5-16.8v-27.7h-10v-10.8h10v-13.9l13.1-3.3v17.1h13.8v10.8H178
		v26.6c0,4.2,1.9,6,6.1,6c2.7,0,4.9-0.1,8.5-0.5v11C188.9,287.5,185.2,288,181.4,288z"/>
	<path id="XMLID_6_" class="st1" d="M228.2,244.3c-9.2,0-14.1,6.6-14.1,15.4v27.5h-13.2v-54.6h11.1l1.2,8.2c2.5-6.3,9-8.9,15.4-8.9
		c1.4,0,2.7,0.1,4.1,0.3v12.6C231.3,244.5,229.7,244.3,228.2,244.3z"/>
	<path id="XMLID_7_" class="st1" d="M275.4,287.3l-0.9-7.1c-2.6,5.4-8.7,8.5-15.6,8.5c-11.7,0-18.9-7.9-18.9-19.5v-36.4H253v33.5
		c0,6.4,2.5,10.4,9.5,10.4c3,0,5.1-1.2,6.7-2.7c3.2-2.9,4-7.9,4-12.3v-28.9h13.1v54.6H275.4z"/>
	<path id="XMLID_8_" class="st1" d="M309.8,287.9c-8.9,0-14.9-4.3-14.9-14.7v-61.8h13.2V271c0,3.2,0.7,5.2,5.2,5.2
		c1.2,0,1.5-0.1,2.2-0.1v11C313,287.7,312.5,287.9,309.8,287.9z"/>
	<rect id="XMLID_9_" x="323.4" y="232.7" class="st1" width="13.3" height="54.6"/>
	<path id="XMLID_12_" class="st1" d="M388.8,288.1c-5.7,0-8.8-3.6-9.2-7.7c-2.5,4.4-8.8,8.2-16.6,8.2c-13,0-19.7-8.2-19.7-17.1
		c0-10.4,8.1-16.4,18.5-17.1l16.1-1.2v-3.4c0-5.1-1.8-8.6-9.2-8.6c-6.1,0-9.7,2.7-10,7.8h-12.7c0.7-12.3,10.5-17.7,22.7-17.7
		c9.3,0,17.3,2.9,20.5,11.1c1.4,3.5,1.6,7.4,1.6,11v20.3c0,2.5,0.8,3.5,3,3.5c0.8,0,1.7-0.2,1.7-0.2v9.7
		C393.1,287.6,392,288.1,388.8,288.1z M377.8,263l-13.9,1.1c-4,0.3-7.9,2.7-7.9,7.1c0,4.2,3.7,6.8,7.8,6.8c8.2,0,14-4.4,14-12.5V263
		z"/>
	<path id="XMLID_15_" class="st1" d="M124.5,211.4c-12.1,0.1-19.8,8.2-19.8,20.4c0,10.1,6.6,18.8,10.4,32c2.2,7.5,3.3,16.8,3.9,23.6
		H130c0.6-6.8,1.8-16,3.9-23.6c3.8-13.2,10.4-21.8,10.4-32C144.3,219.5,136.5,211.4,124.5,211.4z M124.6,242.5c-5,0-9.1-4.1-9.1-9.1
		c0-5,4.1-9.1,9.1-9.1c5,0,9.1,4.1,9.1,9.1C133.6,238.5,129.6,242.5,124.6,242.5z"/>
</g>
</svg>
